REM DIRINDEX 1\2,1\3,1\4,1\5,1\6
REM DIRNAME cjc030,folder01,folder02,folder03,folder04,folder05
TITLE ""
FILE "Disc6Track08.mp3" MP3
  TRACK 01 AUDIO
    TITLE "3:cjc030_10619"
    INDEX 01 00:00:00
  TRACK 02 AUDIO
    TITLE "0:"
    INDEX 01 00:00:70
  TRACK 03 AUDIO
    TITLE "4:cjc030_10620"
    INDEX 01 00:01:05
  TRACK 04 AUDIO
    TITLE "0:"
    INDEX 01 00:02:49
  TRACK 05 AUDIO
    TITLE "5:cjc030_10621"
    INDEX 01 00:02:59
  TRACK 06 AUDIO
    TITLE "0:"
    INDEX 01 00:03:59
  TRACK 07 AUDIO
    TITLE "6:cjc030_10622"
    INDEX 01 00:03:70
  TRACK 08 AUDIO
    TITLE "0:"
    INDEX 01 00:05:61
  TRACK 09 AUDIO
    TITLE "3:cjc030_10623"
    INDEX 01 00:06:37
  TRACK 10 AUDIO
    TITLE "0:"
    INDEX 01 00:07:33
  TRACK 11 AUDIO
    TITLE "4:cjc030_10624"
    INDEX 01 00:07:43
  TRACK 12 AUDIO
    TITLE "0:"
    INDEX 01 00:09:36
  TRACK 13 AUDIO
    TITLE "5:cjc030_10625"
    INDEX 01 00:09:40
  TRACK 14 AUDIO
    TITLE "0:"
    INDEX 01 00:10:41
  TRACK 15 AUDIO
    TITLE "6:cjc030_10626"
    INDEX 01 00:10:53
  TRACK 16 AUDIO
    TITLE "0:"
    INDEX 01 00:12:46
  TRACK 17 AUDIO
    TITLE "3:cjc030_10627"
    INDEX 01 00:13:22
  TRACK 18 AUDIO
    TITLE "0:"
    INDEX 01 00:14:25
  TRACK 19 AUDIO
    TITLE "4:cjc030_10628"
    INDEX 01 00:14:37
  TRACK 20 AUDIO
    TITLE "0:"
    INDEX 01 00:17:12
  TRACK 21 AUDIO
    TITLE "5:cjc030_10629"
    INDEX 01 00:17:20
  TRACK 22 AUDIO
    TITLE "0:"
    INDEX 01 00:18:29
  TRACK 23 AUDIO
    TITLE "6:cjc030_10630"
    INDEX 01 00:18:39
  TRACK 24 AUDIO
    TITLE "0:"
    INDEX 01 00:20:59
  TRACK 25 AUDIO
    TITLE "3:cjc030_10631"
    INDEX 01 00:21:33
  TRACK 26 AUDIO
    TITLE "0:"
    INDEX 01 00:22:42
  TRACK 27 AUDIO
    TITLE "4:cjc030_10632"
    INDEX 01 00:22:52
  TRACK 28 AUDIO
    TITLE "0:"
    INDEX 01 00:24:57
  TRACK 29 AUDIO
    TITLE "5:cjc030_10633"
    INDEX 01 00:24:67
  TRACK 30 AUDIO
    TITLE "0:"
    INDEX 01 00:26:05
  TRACK 31 AUDIO
    TITLE "6:cjc030_10634"
    INDEX 01 00:26:13
  TRACK 32 AUDIO
    TITLE "0:"
    INDEX 01 00:30:28
  TRACK 33 AUDIO
    TITLE "3:cjc030_10635"
    INDEX 01 00:31:00
  TRACK 34 AUDIO
    TITLE "0:"
    INDEX 01 00:32:25
  TRACK 35 AUDIO
    TITLE "4:cjc030_10636"
    INDEX 01 00:32:37
  TRACK 36 AUDIO
    TITLE "0:"
    INDEX 01 00:33:36
  TRACK 37 AUDIO
    TITLE "5:cjc030_10637"
    INDEX 01 00:33:46
  TRACK 38 AUDIO
    TITLE "0:"
    INDEX 01 00:34:71
  TRACK 39 AUDIO
    TITLE "3:cjc030_10638"
    INDEX 01 00:35:47
  TRACK 40 AUDIO
    TITLE "0:"
    INDEX 01 00:36:52
  TRACK 41 AUDIO
    TITLE "4:cjc030_10639"
    INDEX 01 00:36:64
  TRACK 42 AUDIO
    TITLE "0:"
    INDEX 01 00:38:37
  TRACK 43 AUDIO
    TITLE "5:cjc030_10640"
    INDEX 01 00:38:47
  TRACK 44 AUDIO
    TITLE "0:"
    INDEX 01 00:39:54
  TRACK 45 AUDIO
    TITLE "6:cjc030_10641"
    INDEX 01 00:39:66
  TRACK 46 AUDIO
    TITLE "0:"
    INDEX 01 00:41:73
  TRACK 47 AUDIO
    TITLE "3:cjc030_10642"
    INDEX 01 00:42:45
  TRACK 48 AUDIO
    TITLE "0:"
    INDEX 01 00:43:50
  TRACK 49 AUDIO
    TITLE "4:cjc030_10643"
    INDEX 01 00:43:58
  TRACK 50 AUDIO
    TITLE "0:"
    INDEX 01 00:45:04
  TRACK 51 AUDIO
    TITLE "5:cjc030_10644"
    INDEX 01 00:45:14
  TRACK 52 AUDIO
    TITLE "0:"
    INDEX 01 00:46:19
  TRACK 53 AUDIO
    TITLE "3:cjc030_10645"
    INDEX 01 00:46:72
  TRACK 54 AUDIO
    TITLE "0:"
    INDEX 01 00:48:06
  TRACK 55 AUDIO
    TITLE "4:cjc030_10646"
    INDEX 01 00:48:16
  TRACK 56 AUDIO
    TITLE "0:"
    INDEX 01 00:49:20
  TRACK 57 AUDIO
    TITLE "5:cjc030_10647"
    INDEX 01 00:49:29
  TRACK 58 AUDIO
    TITLE "0:"
    INDEX 01 00:50:37
  TRACK 59 AUDIO
    TITLE "6:cjc030_10648"
    INDEX 01 00:50:50
  TRACK 60 AUDIO
    TITLE "0:"
    INDEX 01 00:52:28
